<mxfile host="app.diagrams.net" modified="2022-05-03T05:05:02.368Z" agent="5.0 (Windows NT 10.0; Win64; x64) AppleWebKit/537.36 (KHTML, like Gecko) Chrome/100.0.4896.127 Safari/537.36" etag="udEIS_3eNFdDFehbKtiP" version="17.5.0" type="github">
  <diagram id="OosSoOCT6FYR9ck28VR-" name="Page-1">
    <mxGraphModel dx="371" dy="530" grid="1" gridSize="10" guides="1" tooltips="1" connect="1" arrows="1" fold="1" page="1" pageScale="1" pageWidth="850" pageHeight="1100" math="0" shadow="0">
      <root>
        <mxCell id="0" />
        <mxCell id="1" parent="0" />
        <mxCell id="RAm1XyNZ-T69pDgDgnhG-2" value="Input&lt;br&gt;Features" style="rounded=0;whiteSpace=wrap;html=1;fillColor=#d5e8d4;strokeColor=#82b366;" vertex="1" parent="1">
          <mxGeometry x="30" y="120" width="50" height="40" as="geometry" />
        </mxCell>
        <mxCell id="RAm1XyNZ-T69pDgDgnhG-3" value="" style="endArrow=classic;html=1;rounded=0;exitX=1;exitY=0.5;exitDx=0;exitDy=0;entryX=0;entryY=0.5;entryDx=0;entryDy=0;" edge="1" parent="1" source="RAm1XyNZ-T69pDgDgnhG-2" target="RAm1XyNZ-T69pDgDgnhG-5">
          <mxGeometry width="50" height="50" relative="1" as="geometry">
            <mxPoint x="120" y="170" as="sourcePoint" />
            <mxPoint x="100" y="180" as="targetPoint" />
          </mxGeometry>
        </mxCell>
        <mxCell id="RAm1XyNZ-T69pDgDgnhG-5" value="&lt;font style=&quot;font-size: 10px&quot;&gt;Dense&lt;br&gt;32&lt;/font&gt;" style="rounded=0;whiteSpace=wrap;html=1;fillColor=#dae8fc;strokeColor=#6c8ebf;" vertex="1" parent="1">
          <mxGeometry x="100" y="110" width="30" height="60" as="geometry" />
        </mxCell>
        <mxCell id="RAm1XyNZ-T69pDgDgnhG-7" value="" style="endArrow=classic;html=1;rounded=0;exitX=1;exitY=0.5;exitDx=0;exitDy=0;entryX=0;entryY=0.5;entryDx=0;entryDy=0;" edge="1" parent="1" source="RAm1XyNZ-T69pDgDgnhG-5" target="RAm1XyNZ-T69pDgDgnhG-8">
          <mxGeometry width="50" height="50" relative="1" as="geometry">
            <mxPoint x="100" y="170" as="sourcePoint" />
            <mxPoint x="210" y="170" as="targetPoint" />
          </mxGeometry>
        </mxCell>
        <mxCell id="RAm1XyNZ-T69pDgDgnhG-8" value="&lt;font style=&quot;font-size: 10px&quot;&gt;Dense&lt;br&gt;64&lt;/font&gt;" style="rounded=0;whiteSpace=wrap;html=1;fillColor=#dae8fc;strokeColor=#6c8ebf;" vertex="1" parent="1">
          <mxGeometry x="150" y="100" width="30" height="80" as="geometry" />
        </mxCell>
        <mxCell id="RAm1XyNZ-T69pDgDgnhG-9" value="&lt;font style=&quot;font-size: 10px&quot;&gt;Dense&lt;br&gt;128&lt;/font&gt;" style="rounded=0;whiteSpace=wrap;html=1;fillColor=#dae8fc;strokeColor=#6c8ebf;" vertex="1" parent="1">
          <mxGeometry x="200" y="90" width="30" height="100" as="geometry" />
        </mxCell>
        <mxCell id="RAm1XyNZ-T69pDgDgnhG-14" style="edgeStyle=orthogonalEdgeStyle;rounded=0;orthogonalLoop=1;jettySize=auto;html=1;exitX=1;exitY=0.5;exitDx=0;exitDy=0;entryX=0;entryY=0.5;entryDx=0;entryDy=0;fontSize=10;" edge="1" parent="1" source="RAm1XyNZ-T69pDgDgnhG-10" target="RAm1XyNZ-T69pDgDgnhG-13">
          <mxGeometry relative="1" as="geometry" />
        </mxCell>
        <mxCell id="RAm1XyNZ-T69pDgDgnhG-10" value="&lt;font style=&quot;font-size: 10px&quot;&gt;Dense&lt;br&gt;256&lt;/font&gt;" style="rounded=0;whiteSpace=wrap;html=1;fillColor=#dae8fc;strokeColor=#6c8ebf;" vertex="1" parent="1">
          <mxGeometry x="250" y="80" width="30" height="120" as="geometry" />
        </mxCell>
        <mxCell id="RAm1XyNZ-T69pDgDgnhG-11" value="" style="endArrow=classic;html=1;rounded=0;exitX=1;exitY=0.5;exitDx=0;exitDy=0;entryX=0;entryY=0.5;entryDx=0;entryDy=0;" edge="1" parent="1" source="RAm1XyNZ-T69pDgDgnhG-8" target="RAm1XyNZ-T69pDgDgnhG-9">
          <mxGeometry width="50" height="50" relative="1" as="geometry">
            <mxPoint x="139.99999999999994" y="150" as="sourcePoint" />
            <mxPoint x="160" y="150" as="targetPoint" />
          </mxGeometry>
        </mxCell>
        <mxCell id="RAm1XyNZ-T69pDgDgnhG-12" value="" style="endArrow=classic;html=1;rounded=0;exitX=1;exitY=0.5;exitDx=0;exitDy=0;entryX=0;entryY=0.5;entryDx=0;entryDy=0;" edge="1" parent="1" source="RAm1XyNZ-T69pDgDgnhG-9" target="RAm1XyNZ-T69pDgDgnhG-10">
          <mxGeometry width="50" height="50" relative="1" as="geometry">
            <mxPoint x="190" y="150" as="sourcePoint" />
            <mxPoint x="210" y="150" as="targetPoint" />
          </mxGeometry>
        </mxCell>
        <mxCell id="RAm1XyNZ-T69pDgDgnhG-16" style="edgeStyle=orthogonalEdgeStyle;rounded=0;orthogonalLoop=1;jettySize=auto;html=1;exitX=1;exitY=0.5;exitDx=0;exitDy=0;entryX=0;entryY=0.5;entryDx=0;entryDy=0;fontSize=10;" edge="1" parent="1" source="RAm1XyNZ-T69pDgDgnhG-13" target="RAm1XyNZ-T69pDgDgnhG-15">
          <mxGeometry relative="1" as="geometry" />
        </mxCell>
        <mxCell id="RAm1XyNZ-T69pDgDgnhG-13" value="&lt;font style=&quot;font-size: 10px&quot;&gt;Dense&lt;br&gt;128&lt;/font&gt;" style="rounded=0;whiteSpace=wrap;html=1;fillColor=#dae8fc;strokeColor=#6c8ebf;" vertex="1" parent="1">
          <mxGeometry x="300" y="90" width="30" height="100" as="geometry" />
        </mxCell>
        <mxCell id="RAm1XyNZ-T69pDgDgnhG-18" style="edgeStyle=orthogonalEdgeStyle;rounded=0;orthogonalLoop=1;jettySize=auto;html=1;exitX=1;exitY=0.5;exitDx=0;exitDy=0;entryX=0;entryY=0.5;entryDx=0;entryDy=0;fontSize=10;" edge="1" parent="1" source="RAm1XyNZ-T69pDgDgnhG-15" target="RAm1XyNZ-T69pDgDgnhG-17">
          <mxGeometry relative="1" as="geometry" />
        </mxCell>
        <mxCell id="RAm1XyNZ-T69pDgDgnhG-15" value="&lt;font style=&quot;font-size: 10px&quot;&gt;Dense&lt;br&gt;64&lt;/font&gt;" style="rounded=0;whiteSpace=wrap;html=1;fillColor=#dae8fc;strokeColor=#6c8ebf;" vertex="1" parent="1">
          <mxGeometry x="350" y="100" width="30" height="80" as="geometry" />
        </mxCell>
        <mxCell id="RAm1XyNZ-T69pDgDgnhG-20" style="edgeStyle=orthogonalEdgeStyle;rounded=0;orthogonalLoop=1;jettySize=auto;html=1;exitX=1;exitY=0.5;exitDx=0;exitDy=0;entryX=0;entryY=0.5;entryDx=0;entryDy=0;fontSize=10;" edge="1" parent="1" source="RAm1XyNZ-T69pDgDgnhG-17" target="RAm1XyNZ-T69pDgDgnhG-19">
          <mxGeometry relative="1" as="geometry" />
        </mxCell>
        <mxCell id="RAm1XyNZ-T69pDgDgnhG-17" value="&lt;font style=&quot;font-size: 10px&quot;&gt;Dense&lt;br&gt;64&lt;/font&gt;" style="rounded=0;whiteSpace=wrap;html=1;fillColor=#dae8fc;strokeColor=#6c8ebf;" vertex="1" parent="1">
          <mxGeometry x="395" y="110" width="30" height="60" as="geometry" />
        </mxCell>
        <mxCell id="RAm1XyNZ-T69pDgDgnhG-19" value="Classification&lt;br&gt;Layer" style="rhombus;whiteSpace=wrap;html=1;fontSize=10;fillColor=#fff2cc;strokeColor=#d6b656;" vertex="1" parent="1">
          <mxGeometry x="450" y="110" width="70" height="60" as="geometry" />
        </mxCell>
      </root>
    </mxGraphModel>
  </diagram>
</mxfile>
